Coordinates
version=1
nRows=14
nColumns=42
inDegrees=yes

Units are S.I. units (second, meters, Newtons, ...)
If the header above contains a line with 'inDegrees', this indicates whether rotational values are in degrees (yes) or radians (no).

endheader
time	pelvis_tilt	pelvis_list	pelvis_rotation	pelvis_tx	pelvis_ty	pelvis_tz	hip_flexion_r	hip_adduction_r	hip_rotation_r	knee_angle_r	knee_adduction_r	knee_angle_r_beta	ankle_angle_r	subtalar_angle_r	mtp_angle_r	hip_flexion_l	hip_adduction_l	hip_rotation_l	knee_angle_l	knee_adduction_l	knee_angle_l_beta	ankle_angle_l	subtalar_angle_l	mtp_angle_l	lumbar_extension	lumbar_bending	lumbar_rotation	arm_flex_r	arm_add_r	arm_rot_r	elbow_flex_r	pro_sup_r	wrist_flex_r	wrist_dev_r	arm_flex_l	arm_add_l	arm_rot_l	elbow_flex_l	pro_sup_l	wrist_flex_l	wrist_dev_l
      0.91000000	      0.13529308	      2.50276967	     -4.72895954	     -1.16577579	      0.95632371	      0.20306526	     -2.44944932	     -8.63729711	     -0.39954181	     46.93853632	      4.16561479	      0.81923200	     -2.07824279	      9.30709885	     -7.74475167	     20.38677872	      1.70456571	    -13.15717857	     21.68475607	     -3.06416226	      0.37847039	      4.61230482	     12.41700122	     -7.74475167	     -9.53716775	     -5.08616405	      3.97882536	      1.57796344	    -14.92990546	      9.23212936	     33.77886132	     90.00000001	      0.00000000	      0.00000000	     -7.39267561	    -12.99402455	      7.12165354	     26.87354605	     90.00000001	      0.00000000	      0.00000000
      0.92000000	      0.04834645	      2.57947002	     -4.54249541	     -1.15492178	      0.95785246	      0.20164982	     -0.67891884	     -8.76027454	      0.43299521	     49.48769009	      4.60759464	      0.86372313	     -2.15178454	      7.53719269	     -7.72982413	     19.69073619	      1.95163083	    -13.45582469	     21.53397509	     -3.14061940	      0.37583877	      5.29231529	     13.36304783	     -7.72982413	     -9.50174751	     -5.11473627	      3.50632323	      1.42454789	    -14.78113630	      9.94749813	     33.02966305	     90.00000001	      0.00000000	      0.00000000	     -6.82096898	    -13.16543486	      7.61835520	     27.13236497	     90.00000001	      0.00000000	      0.00000000
      0.93000000	      0.09327215	      2.51193462	     -4.38926844	     -1.14414745	      0.95950131	      0.20038321	      0.97803825	     -8.71674376	      0.69518750	     51.82283962	      4.62111800	      0.90447918	     -1.73443827	      7.17294150	     -7.72657232	     18.73915621	      2.03269767	    -13.38294813	     21.24400250	     -3.01807889	      0.37077779	      5.77274299	     13.60119599	     -7.72657232	     -9.62563434	     -4.97634497	      3.09714747	      1.02556885	    -14.71748827	     10.04065693	     32.88815481	     90.00000001	      0.00000000	      0.00000000	     -6.22548146	    -13.23182782	      7.67450056	     27.46385082	     90.00000001	      0.00000000	      0.00000000
      0.94000000	     -0.08204874	      2.52897576	     -4.14398459	     -1.13352160	      0.96085359	      0.19905872	      2.89494738	     -8.79554594	      0.79234510	     53.98877506	      4.73393219	      0.94228188	     -1.06975569	      6.09567585	     -7.71257112	     18.11330961	      2.22790722	    -13.60215801	     20.99834919	     -3.11967559	      0.36649033	      6.56585107	     14.63722162	     -7.71257112	     -9.47449761	     -4.89481827	      2.63910169	      0.72782640	    -14.59852744	     10.76220684	     32.12436580	     90.00000001	      0.00000000	      0.00000000	     -5.53961258	    -13.47425483	      8.44343372	     27.59189062	     90.00000001	      0.00000000	      0.00000000
      0.95000000	     -0.12261418	      2.39157383	     -3.94728478	     -1.12301296	      0.96238395	      0.19791339	      4.64392070	     -8.66328248	      0.67077064	     55.81912157	      4.60870368	      0.97422746	     -0.28528448	      5.70810190	     -7.70816561	     17.24840622	      2.24939762	    -13.44494326	     20.64575972	     -3.04947285	      0.36033648	      7.10244369	     14.99681352	     -7.70816561	     -9.52239843	     -4.65655405	      2.25302260	      0.29164816	    -14.50167203	     10.90735698	     31.97542522	     90.00000001	      0.00000000	      0.00000000	     -4.82929539	    -13.56421728	      8.61906326	     27.92632589	     90.00000001	      0.00000000	      0.00000000
      0.96000000	     -0.16139911	      2.18094310	     -3.73038801	     -1.11252829	      0.96391976	      0.19683444	      6.33747636	     -8.46317568	      0.42572563	     57.32953446	      4.50338595	      1.00058914	      0.53323564	      5.37727067	     -7.70463363	     16.36664937	      2.17002645	    -13.31232531	     20.26322984	     -2.96222479	      0.35366008	      7.60691820	     15.39563611	     -7.70463363	     -9.54387161	     -4.32787609	      1.89941567	     -0.16422641	    -14.40102853	     11.04866107	     31.73273289	     90.00000001	      0.00000000	      0.00000000	     -4.05868410	    -13.66299025	      8.81357993	     28.19825981	     90.00000001	      0.00000000	      0.00000000
      0.97000000	     -0.18837714	      1.92940916	     -3.48467035	     -1.10208863	      0.96544397	      0.19574739	      7.97466592	     -8.20889211	      0.10826984	     58.51954406	      4.40390895	      1.02135872	      1.38098150	      5.12415237	     -7.70133156	     15.47390712	      2.05247427	    -13.17001383	     19.87722875	     -2.88738039	      0.34692309	      8.10346399	     15.85374944	     -7.70133156	     -9.57728810	     -3.94505831	      1.51904682	     -0.60617297	    -14.31523641	     11.17906486	     31.46477642	     90.00000001	      0.00000000	      0.00000000	     -3.24179620	    -13.74892682	      9.06183998	     28.43004661	     90.00000001	      0.00000000	      0.00000000
      0.98000000	     -0.20190373	      1.65337040	     -3.20754506	     -1.09160299	      0.96693290	      0.19467206	      9.52060987	     -7.94406018	     -0.30415865	     59.36501545	      4.33265422	      1.03611498	      2.27457198	      4.95816318	     -7.69789808	     14.55354688	      1.91411679	    -13.03036973	     19.45841945	     -2.84238246	      0.33961349	      8.62147480	     16.42130253	     -7.69789808	     -9.60640836	     -3.51650334	      1.14494845	     -1.05506895	    -14.22452655	     11.30597413	     31.16237739	     90.00000001	      0.00000000	      0.00000000	     -2.38259106	    -13.85526219	      9.41108594	     28.60259911	     90.00000001	      0.00000000	      0.00000000
      0.99000000	     -0.18987295	      1.37130554	     -2.94021804	     -1.08110094	      0.96839725	      0.19361120	     10.97377233	     -7.67137785	     -0.73349126	     59.85395331	      4.30757838	      1.04464856	      3.13981178	      4.87776956	     -7.69464243	     13.58052333	      1.76455762	    -12.92277121	     18.98821897	     -2.79514110	      0.33140694	      9.10152221	     17.02475452	     -7.69464243	     -9.65945222	     -3.08492839	      0.81244653	     -1.53225819	    -14.13588847	     11.39976156	     30.86595603	     90.00000001	      0.00000000	      0.00000000	     -1.50785482	    -13.95708881	      9.80940688	     28.77344306	     90.00000001	      0.00000000	      0.00000000
      1.00000000	     -0.15221442	      1.09856826	     -2.64408817	     -1.07050076	      0.96980071	      0.19254165	     12.32033450	     -7.39213004	     -1.14426291	     60.04868254	      4.32215398	      1.04804722	      3.95161016	      4.85178590	     -7.69166280	     12.55938310	      1.62713463	    -12.84578639	     18.46739863	     -2.76756928	      0.32231691	      9.52942959	     17.60151926	     -7.69166280	     -9.68980288	     -2.65179735	      0.46895331	     -2.04302534	    -14.06658365	     11.44731195	     30.59514870	     90.00000001	      0.00000000	      0.00000000	     -0.59980122	    -14.05306411	     10.20612188	     28.99376427	     90.00000001	      0.00000000	      0.00000000
      1.01000000	     -0.02726703	      0.82896243	     -2.29468857	     -1.05979093	      0.97109501	      0.19146480	     13.49175575	     -7.13805457	     -2.03981003	     59.91727769	      4.01108868	      1.04575377	      5.03709362	      5.76823317	     -7.67469161	     11.59060320	      1.41449228	    -13.57608250	     18.15649376	     -2.93654209	      0.31689060	     10.24870995	     19.92096024	     -7.67469161	     -9.78654473	     -2.22305711	      0.15439845	     -2.50301246	    -13.88668271	     11.19430370	     30.03948931	     90.00000001	      0.00000000	      0.00000000	      0.39978437	    -14.72863944	     13.64342954	     29.08253196	     90.00000001	      0.00000000	      0.00000000
      1.02000000	      0.02243436	      0.60117849	     -1.99764042	     -1.04915608	      0.97231831	      0.19040980	     14.67376804	     -6.88792593	     -2.39859491	     59.47699344	      4.14165965	      1.03806936	      5.74808040	      5.54528911	     -7.67176063	     10.47993286	      1.33825495	    -13.35163031	     17.47928716	     -2.86896190	      0.30507111	     10.57890039	     20.22900877	     -7.67176063	     -9.81510032	     -1.83383480	     -0.13406537	     -3.10297486	    -13.82362872	     11.14586542	     29.89341917	     90.00000001	      0.00000000	      0.00000000	      1.22074190	    -14.83792608	     13.84466864	     29.60571583	     90.00000001	      0.00000000	      0.00000000
      1.03000000	      0.14119024	      0.40139814	     -1.63750353	     -1.03846261	      0.97345989	      0.18933416	     15.68053371	     -6.68434521	     -2.87125869	     58.72982628	      4.25793869	      1.02502884	      6.52250180	      5.46175926	     -7.66827107	      9.28335106	      1.28838251	    -13.08730233	     16.76984532	     -2.79453987	      0.29268902	     10.93519138	     20.73043825	     -7.66827107	     -9.90422180	     -1.47000270	     -0.51283570	     -3.66203508	    -13.71172566	     11.02428161	     29.68361881	     90.00000001	      0.00000000	      0.00000000	      2.04420042	    -15.00885673	     14.25810206	     30.05841431	     90.00000001	      0.00000000	      0.00000000
      1.04000000	      0.19074461	      0.22022932	     -1.30346800	     -1.02783076	      0.97435574	      0.18827066	     16.71341592	     -6.47960141	     -3.36880529	     57.72785846	      4.32408469	      1.00754120	      7.17525192	      5.42851403	     -7.66539328	      8.18409900	      1.25367705	    -12.93889245	     16.07701035	     -2.77676601	      0.28059676	     11.23209408	     21.18720278	     -7.66539328	     -9.90868188	     -1.11986958	     -0.80464126	     -4.23217979	    -13.62121552	     10.88906274	     29.44259909	     90.00000001	      0.00000000	      0.00000000	      2.88907734	    -15.14362859	     14.63177424	     30.54727366	     90.00000001	      0.00000000	      0.00000000
